<svg width="32" height="32" viewBox="0 0 32 32" fill="none" xmlns="http://www.w3.org/2000/svg">
<path d="M25.4815 5.33301H7.85183C6.46035 5.33301 5.33331 6.46004 5.33331 7.85153V25.4812C5.33331 26.8726 6.46035 27.9997 7.85183 27.9997H17.4486V19.234H14.4982V15.8025H17.4486V13.2777C17.4486 10.3512 19.2381 8.75567 21.8498 8.75567C22.73 8.75316 23.6089 8.79849 24.4841 8.8879V11.9479H22.6859C21.2629 11.9479 20.9859 12.6203 20.9859 13.6126V15.7975H24.3859L23.9439 19.2289H20.9658V27.9997H25.4815C26.8729 27.9997 28 26.8726 28 25.4812V7.85153C28 6.46004 26.8729 5.33301 25.4815 5.33301Z" fill="black"/>
</svg>
