<svg width="76" height="77" viewBox="0 0 76 77" fill="none" xmlns="http://www.w3.org/2000/svg">
<path d="M12.8657 69.9997C8.92039 69.9557 7.2012 64.5131 3.50167 63.1417C0.800117 62.1431 7.00988 62.0644 5.00167 59.9997C-4.15633 54.1527 4.49735 53.7037 3.50167 50.9998C2.13142 47.3004 2.04235 52.9448 1.99917 49C1.69617 42.442 5.0025 48.617 5.0025 32C5.0025 15.383 4.70767 25.0626 5.00167 18.4996C5.05009 14.5563 0.634555 22.1985 2.00167 18.4996C3.0022 15.7976 2.93803 17.011 5.00167 15.0002C7.0074 12.9318 5.29778 8.49444 8.00167 7.49942C11.7012 6.12804 12.0564 4.04373 16.0017 3.9997C22.5617 3.6997 20.3937 3 37.0017 3C53.6097 3 50.4387 3.70576 57.0017 3.99976C60.9459 4.04784 59.3018 2.63231 63.0017 3.99976C65.7044 4.99609 64.4951 5.43314 66.5017 7.49975C68.5689 9.507 69.5046 10.1583 70.5017 12.8618C71.8734 16.5612 71.9573 14.5544 72.0017 18.4998C72.3017 25.0628 72.6791 19.3878 72.6791 35.9998C72.6791 52.6118 72.9791 44.4368 72.6791 50.9998C72.6314 54.9445 73.3702 38.2998 72.0017 41.9998C70.9665 44.6829 74.0355 52.4664 72.0017 54.4998C69.9678 56.5331 69.1851 65.4652 66.5017 66.4997C62.8022 67.8714 57.947 71.4554 54.0017 71.4997C47.4447 71.7997 54.6137 71.4997 38.0017 71.4997C21.3897 71.4997 27.5587 73.3027 21.0017 72.9997" fill="url(#paint0_radial_1094_18)"/>
<path d="M9 69.5C5.05472 69.456 9.69973 70.3714 6.0002 69C3.29865 68.0014 6.00732 67.5646 3.99911 65.5C1.92888 63.4958 2.30991 62.2039 1.31423 59.5C-0.0560204 55.8006 1.35793 55.9448 1.31475 52C1.01175 45.442 1.31263 51.617 1.31263 35C1.31263 18.383 1.01877 28.563 1.31277 22C1.36119 18.0568 2.63365 19.1987 4.00077 15.4997C5.0013 12.7977 3.93713 12.5107 6.00077 10.4999C8.00649 8.43153 5.29688 7.99495 8.00077 6.99993C11.7003 5.62855 8.92048 4.04397 12.8658 3.99994C19.4258 3.69994 19.8928 1.31152 36.5008 1.31152C53.1088 1.31152 50.9378 3.70564 57.5008 3.99964C61.445 4.04772 63.3008 5.63218 67.0008 6.99964C69.7035 7.99597 63.4942 4.93303 65.5008 6.99964C67.568 9.00688 66.0037 6.29623 67.0008 8.99964C68.3725 12.6991 71.9564 11.5543 72.0008 15.4996C72.3008 22.0626 72.0008 21.3876 72.0008 37.9996C72.0008 54.6116 72.3008 49.4366 72.0008 55.9996C71.9531 59.9443 71.3693 59.4416 70.0008 63.1416C68.9655 65.8248 67.5346 65.4663 65.5008 67.4996C63.4669 69.533 60.1842 70.4651 57.5008 71.4996C53.8013 72.8713 50.9461 71.4553 47.0008 71.4996C40.4438 71.7996 45.6128 74.6936 29.0008 74.6936C12.3888 74.6936 19.4228 71.8026 12.8658 71.4996" fill="url(#paint1_radial_1094_18)"/>
<path d="M25.4789 38.2172C25.479 35.7189 26.2201 33.2769 27.6082 31.1998C28.9963 29.1228 30.9692 27.504 33.2773 26.5482C35.5855 25.5924 38.1252 25.3425 40.5754 25.8301C43.0255 26.3178 45.2761 27.521 47.0424 29.2878C48.8087 31.0545 50.0114 33.3053 50.4984 35.7556C50.9855 38.2059 50.735 40.7455 49.7787 43.0535C48.8223 45.3614 47.2031 47.3339 45.1257 48.7215C43.0483 50.1091 40.6061 50.8496 38.1078 50.8492C34.7581 50.8487 31.5457 49.5175 29.1773 47.1486C26.8089 44.7796 25.4786 41.5669 25.4789 38.2172ZM18.6498 38.2172C18.6498 42.0656 19.791 45.8276 21.9291 49.0275C24.0672 52.2273 27.1061 54.7213 30.6616 56.194C34.2171 57.6668 38.1294 58.0521 41.9039 57.3013C45.6784 56.5505 49.1455 54.6973 51.8667 51.976C54.588 49.2548 56.4412 45.7877 57.192 42.0132C57.9427 38.2388 57.5574 34.3264 56.0847 30.7709C54.612 27.2154 52.118 24.1765 48.9181 22.0384C45.7183 19.9003 41.9563 18.7592 38.1078 18.7592C35.5526 18.759 33.0223 19.2622 30.6614 20.2401C28.3006 21.2179 26.1555 22.6511 24.3487 24.458C22.5418 26.2648 21.1085 28.4099 20.1307 30.7708C19.1529 33.1316 18.6497 35.6619 18.6498 38.2172ZM53.7888 17.9882C53.7885 18.8875 54.0547 19.7667 54.554 20.5147C55.0533 21.2626 55.7632 21.8458 56.5939 22.1903C57.4246 22.5348 58.3388 22.6253 59.2209 22.4502C60.1031 22.2751 60.9135 21.8424 61.5497 21.2068C62.1858 20.5712 62.6192 19.7612 62.7951 18.8792C62.9709 17.9973 62.8813 17.083 62.5375 16.252C62.1937 15.4209 61.6112 14.7106 60.8637 14.2106C60.1161 13.7106 59.2371 13.4436 58.3378 13.4432C57.1324 13.4437 55.9765 13.9227 55.1239 14.7748C54.2713 15.627 53.7919 16.7827 53.7908 17.9882M22.8008 69.0622C20.398 69.0358 18.0175 68.596 15.7638 67.7622C14.1294 67.1322 12.645 66.167 11.4062 64.9286C10.1673 63.6903 9.20149 62.2063 8.57083 60.5722C7.73661 58.3186 7.29685 55.9381 7.27084 53.5352C7.08684 49.5412 7.05084 48.3412 7.05084 38.2222C7.05084 28.1032 7.09084 26.9062 7.27084 22.9082C7.3 20.5056 7.73965 18.1256 8.57083 15.8712C9.20076 14.2362 10.1663 12.7515 11.4052 11.5125C12.6441 10.2736 14.1289 9.30809 15.7638 8.67816C18.0174 7.84395 20.3979 7.4042 22.8008 7.37817C26.7948 7.19417 27.9948 7.15817 38.1098 7.15817C48.2248 7.15817 49.4258 7.19718 53.4238 7.37918C55.8264 7.40833 58.2064 7.84799 60.4608 8.67917C62.0957 9.30915 63.5805 10.2747 64.8194 11.5136C66.0583 12.7525 67.0239 14.2373 67.6538 15.8722C68.488 18.1258 68.9278 20.5063 68.9538 22.9092C69.1378 26.9092 69.1738 28.1032 69.1738 38.2232C69.1738 48.3432 69.1368 49.5392 68.9538 53.5372C68.9258 55.9399 68.4861 58.32 67.6538 60.5742C67.0232 62.2083 66.0574 63.6923 64.8185 64.9307C63.5797 66.169 62.0953 67.1342 60.4608 67.7642C58.2072 68.5983 55.8267 69.0381 53.4238 69.0642C49.4298 69.2482 48.2298 69.2842 38.1098 69.2842C27.9898 69.2842 26.7938 69.2472 22.8008 69.0642M22.4868 0.555176C19.3427 0.616995 16.2318 1.21209 13.2868 2.31516C10.7693 3.28853 8.48303 4.77723 6.57446 6.68579C4.6659 8.59435 3.1772 10.8807 2.20383 13.3982C1.10092 16.3432 0.505821 19.454 0.443848 22.5982C0.256848 26.6382 0.214844 27.9302 0.214844 38.2212C0.214844 48.5122 0.257848 49.8032 0.443848 53.8442C0.505802 56.9883 1.1009 60.0991 2.20383 63.0442C3.17725 65.5616 4.66597 67.8479 6.57452 69.7565C8.48308 71.665 10.7694 73.1537 13.2868 74.1272C16.2319 75.2297 19.3427 75.8248 22.4868 75.8872C26.5288 76.0712 27.8188 76.1162 38.1098 76.1162C48.4008 76.1162 49.6918 76.0732 53.7328 75.8872C56.877 75.8251 59.9878 75.23 62.9328 74.1272C65.4503 73.1537 67.7366 71.665 69.6451 69.7565C71.5537 67.8479 73.0424 65.5616 74.0158 63.0442C75.1202 60.0996 75.7154 56.9885 75.7758 53.8442C75.9598 49.8012 76.0018 48.5122 76.0018 38.2212C76.0018 27.9302 75.9588 26.6392 75.7758 22.5982C75.714 19.454 75.1189 16.3431 74.0158 13.3982C73.0425 10.8811 71.5541 8.59518 69.6461 6.68668C67.7382 4.77817 65.4526 3.2892 62.9359 2.31516C59.9911 1.21138 56.8801 0.61626 53.7358 0.555176C49.6948 0.370176 48.4038 0.326172 38.1148 0.326172C27.8258 0.326172 26.5318 0.369176 22.4888 0.555176" fill="white"/>
<defs>
<radialGradient id="paint0_radial_1094_18" cx="0" cy="0" r="1" gradientUnits="userSpaceOnUse" gradientTransform="translate(-6.39901 86.766) scale(129.502 129.502)">
<stop offset="0.09" stop-color="#FA8F21"/>
<stop offset="0.78" stop-color="#D82D7E"/>
</radialGradient>
<radialGradient id="paint1_radial_1094_18" cx="0" cy="0" r="1" gradientUnits="userSpaceOnUse" gradientTransform="translate(57.652 83.49) scale(113.963 113.963)">
<stop offset="0.64" stop-color="#8C3AAA" stop-opacity="0"/>
<stop offset="1" stop-color="#8C3AAA"/>
</radialGradient>
</defs>
</svg>
