<svg width="35" height="35" viewBox="0 0 35 35" fill="none" xmlns="http://www.w3.org/2000/svg">
<path d="M17.5 27.1982C17.2813 27.1982 17.0747 27.1676 16.8802 27.1064C16.6858 27.0461 16.5035 26.9552 16.3334 26.8337C13.2952 24.476 11.0289 22.1791 9.5346 19.943C8.03933 17.7069 7.29169 15.5073 7.29169 13.3441C7.29169 11.6184 7.60183 10.1051 8.2221 8.80428C8.84141 7.50442 9.63717 6.41699 10.6094 5.54199C11.5816 4.66699 12.6754 4.01074 13.8906 3.57324C15.1059 3.13574 16.309 2.91699 17.5 2.91699C18.691 2.91699 19.8941 3.13574 21.1094 3.57324C22.3247 4.01074 23.4184 4.66699 24.3906 5.54199C25.3629 6.41699 26.1591 7.50442 26.7794 8.80428C27.3987 10.1051 27.7084 11.6184 27.7084 13.3441C27.7084 15.5073 26.9607 17.7069 25.4654 19.943C23.9711 22.1791 21.7049 24.476 18.6667 26.8337C18.5209 26.9552 18.3449 27.0461 18.1388 27.1064C17.9317 27.1676 17.7188 27.1982 17.5 27.1982ZM17.5 16.042C18.3021 16.042 18.989 15.7562 19.5606 15.1845C20.1313 14.6138 20.4167 13.9274 20.4167 13.1253C20.4167 12.3232 20.1313 11.6364 19.5606 11.0647C18.989 10.494 18.3021 10.2087 17.5 10.2087C16.6979 10.2087 16.0115 10.494 15.4409 11.0647C14.8692 11.6364 14.5834 12.3232 14.5834 13.1253C14.5834 13.9274 14.8692 14.6138 15.4409 15.1845C16.0115 15.7562 16.6979 16.042 17.5 16.042ZM8.75002 32.0837C8.33683 32.0837 7.99023 31.9437 7.71023 31.6637C7.4312 31.3846 7.29169 31.0385 7.29169 30.6253C7.29169 30.2121 7.4312 29.866 7.71023 29.587C7.99023 29.307 8.33683 29.167 8.75002 29.167H26.25C26.6632 29.167 27.0093 29.307 27.2884 29.587C27.5684 29.866 27.7084 30.2121 27.7084 30.6253C27.7084 31.0385 27.5684 31.3846 27.2884 31.6637C27.0093 31.9437 26.6632 32.0837 26.25 32.0837H8.75002Z" fill="black"/>
</svg>
